<?xml version="1.0" encoding="utf-8"?>
<!-- Generator: Adobe Illustrator 25.0.1, SVG Export Plug-In . SVG Version: 6.00 Build 0)  -->
<svg version="1.1" xmlns="http://www.w3.org/2000/svg" xmlns:xlink="http://www.w3.org/1999/xlink" x="0px" y="0px"
	 viewBox="0 0 3710 3710" style="enable-background:new 0 0 3710 3710;" xml:space="preserve">
<style type="text/css">
	.st0{display:none;}
	.st1{fill:url(#SVGID_1_);}
	.st2{fill:#91B3FA;}
	.st3{fill:#FFFFFF;}
	.st4{fill:#BDD0FB;}
	.st5{fill:url(#SVGID_2_);}
	.st6{fill:url(#SVGID_3_);}
	.st7{opacity:0.5;fill:#FFFFFF;}
	.st8{opacity:0.86;}
	.st9{opacity:0.86;fill:#FFFFFF;}
	.st10{opacity:0.7;fill:#FFFFFF;}
	.st11{fill:url(#SVGID_4_);}
	.st12{fill:url(#SVGID_5_);}
	.st13{fill:url(#SVGID_6_);}
	.st14{fill:url(#SVGID_7_);}
	.st15{fill:url(#SVGID_8_);}
	.st16{fill:url(#SVGID_9_);}
	.st17{opacity:0.8;fill:#FFFFFF;}
	.st18{fill:url(#SVGID_10_);}
	.st19{fill:url(#SVGID_11_);}
	.st20{fill:url(#SVGID_12_);}
	.st21{fill:url(#SVGID_13_);}
	.st22{fill:url(#SVGID_14_);}
	.st23{fill:url(#SVGID_15_);}
	.st24{fill:url(#SVGID_16_);}
	.st25{fill:url(#SVGID_17_);}
	.st26{fill:url(#SVGID_18_);}
	.st27{fill:url(#SVGID_19_);}
	.st28{fill:url(#SVGID_20_);}
	.st29{fill:url(#SVGID_21_);}
	.st30{fill:url(#SVGID_22_);}
	.st31{fill:url(#SVGID_23_);}
	.st32{fill:url(#SVGID_24_);}
	.st33{fill:url(#SVGID_25_);}
	.st34{fill:url(#SVGID_26_);}
	.st35{fill:url(#SVGID_27_);}
	.st36{fill:url(#SVGID_28_);}
	.st37{fill:url(#SVGID_29_);}
	.st38{fill:url(#SVGID_30_);}
</style>
<g id="Background" class="st0">
</g>
<g id="Illustration">
	<g>
		<linearGradient id="SVGID_1_" gradientUnits="userSpaceOnUse" x1="3622.7793" y1="3809.5857" x2="1267.1964" y2="884.0994">
			<stop  offset="0" style="stop-color:#DAE3FE"/>
			<stop  offset="1" style="stop-color:#E9EFFD"/>
		</linearGradient>
		<path class="st1" d="M2974.7,2655.9c-54.1,57-105.3,93.7-145.8,122.7c-475.5,341.2-1038.1,241.7-1157.6,217.4
			c-176.6-35.9-517.9-105.2-764.6-395.4c-373.3-439-315.2-1130.7-25.6-1587.2c53-83.5,332.8-547,901.4-621.4
			c344.1-45,745.3,45.7,1035.8,289.1C3428.2,1192.1,3384.8,2224.2,2974.7,2655.9z"/>
		<g>
			<path class="st2" d="M3124.4,376.5c3.8-11.8-9.9-21.4-19.8-14c-100.6,75.1-348.2,306-344.6,759.1
				c4.6,568.5-135.5,759.8-295.1,868.1c0,0,206.3-36,355.6-229.3C3186.9,1285.6,3056.6,585.7,3124.4,376.5z"/>
			<path class="st3" d="M3035.2,543.8c-18.5,61.1-35.7,122.6-50.7,184.6c-15.3,61.9-28.7,124.3-40.2,186.9
				c-11.2,62.7-21.3,125.6-28.6,188.9c-7.6,63.2-12.6,126.7-17.3,190.4c-5.1,63.7-9.8,127.9-21.1,191.8
				c-11.2,63.8-30.3,127.2-60.3,185.3c-7.5,14.5-15.3,28.9-23.9,42.7c-8.3,14-17.3,27.5-26.4,41c-18.5,26.8-38.8,52.4-60.9,76.3
				c-44.4,47.8-96,88.8-151.5,122.2c-5.8,3.5-13.4,1.6-16.9-4.2c-3.4-5.7-1.7-13.2,3.9-16.7l0,0c13.3-8.5,26.4-17.1,39.2-26.3
				c6.4-4.5,12.7-9.3,19-13.9c6.1-4.9,12.4-9.5,18.4-14.6c24.2-19.9,47-41.4,68.1-64.6c42.4-46,78.1-98.6,106.9-154
				c14.1-27.9,26.1-56.8,35.9-86.5c9.7-29.7,17.2-60.2,22.9-91.2c11.5-62,16.7-125.4,22.2-189.1c5.6-63.6,11.7-127.6,20.4-191.1
				c4.3-31.8,9.1-63.5,14.5-95.1c2.6-15.8,5.5-31.6,8.4-47.4c3-15.7,6.2-31.5,9.4-47.2c13.1-62.8,28.1-125.1,45.1-186.9
				c17.3-61.7,36.2-122.9,57.4-183.3c0.6-1.7,2.5-2.6,4.2-2C3034.8,540.3,3035.8,542.1,3035.2,543.8z"/>
		</g>
		<g>
			<g>
				<path class="st4" d="M2648.5,2317.7c2.3,22.7,27,35.6,47.1,24.9c110.9-59.2,409.2-255.1,491.9-681.1
					c69.8-359.7,141.9-548.2,180.5-631.4c8.2-17.6-10.9-35.4-27.9-26.1C3152.2,1106.7,2565.2,1496.4,2648.5,2317.7z"/>
				<path class="st3" d="M2678.3,2325.4c0.4,0.4,0.8,0.8,1.3,1.2c3.9,2.9,9.5,2.1,12.4-1.8c3.3-4.5,333.7-452.5,453.4-948.3
					c1.2-4.8-1.8-9.6-6.6-10.7c-4.8-1.2-9.6,1.8-10.7,6.6c-118.8,492.2-447.1,937.5-450.4,941.9
					C2675.2,2317.6,2675.5,2322.3,2678.3,2325.4z"/>
			</g>
		</g>
		<g>
			<linearGradient id="SVGID_2_" gradientUnits="userSpaceOnUse" x1="1169.7284" y1="1829.6444" x2="2861.7183" y2="1829.6444">
				<stop  offset="0" style="stop-color:#09005D"/>
				<stop  offset="1" style="stop-color:#1A0F91"/>
			</linearGradient>
			<path class="st5" d="M1200.7,695.1c-10,402.6-42.3,1791.1-26.9,2283.2c1.6,52.1,43.4,94,95.6,95.7
				c257.8,8.4,999.5,29.8,1421.2,12.1c87.8-3.7,157.7-74.8,159.5-162.7c8.8-422.5,28.1-1611-17.9-2155.4
				c-5.5-65.2-56.7-117.2-121.8-123.7c-280.8-28.1-1026.5-96.7-1390.9-73.1C1253.9,575.5,1202.4,629.3,1200.7,695.1z"/>
			<linearGradient id="SVGID_3_" gradientUnits="userSpaceOnUse" x1="1258.3652" y1="1751.4703" x2="2773.0815" y2="1751.4703">
				<stop  offset="0" style="stop-color:#4F52FF"/>
				<stop  offset="1" style="stop-color:#4042E2"/>
			</linearGradient>
			<path class="st6" d="M1305.5,820.2c-14.1,329.7-58.5,1426.5-44.4,1832.1c2.1,59.3,48.8,107.2,108,110.7
				c243.8,14.3,869.1,45.7,1226.7,17.1c64.4-5.2,114.9-57.2,118.4-121.7c18.1-336.4,70.2-1357.6,56.6-1758.6
				c-2.2-64-51.7-116.2-115.5-121.9c-263.8-23.7-941.2-80-1245.1-63.4C1353.3,717.4,1307.9,763.1,1305.5,820.2z"/>
			<path class="st7" d="M1837.9,641.6L1837.9,641.6c0,12.4,9.6,22.5,22,23.2c60.9,3.2,232.4,12.2,309.1,16.7
				c15.1,0.9,27-12.7,24.1-27.6l-0.5-2.5c-2-10.1-10.4-17.8-20.7-18.7c-51.8-4.7-208.2-17.9-311.8-14.2
				C1847.7,618.8,1837.9,629.1,1837.9,641.6z"/>
		</g>
		<path class="st2" d="M2547.7,1891.3H1451.8c-39.4,0-71.4-36.3-71.4-81.1V907.7c0-60,43.7-108.1,96.4-106.2l1091.8,40.9
			c92.6,6.7,91.3,106.1,91.3,176.9l0,744.3C2660,1834.1,2609.8,1891.3,2547.7,1891.3z"/>
		<g class="st8">
			<path class="st3" d="M2576.2,1169.1h-711.4c-5.4,0-9.8-4.4-9.8-9.8V1109c0-5.4,4.4-9.8,9.8-9.8h711.4c5.4,0,9.8,4.4,9.8,9.8v50.3
				C2586.1,1164.7,2581.6,1169.1,2576.2,1169.1z"/>
			<path class="st3" d="M2576.2,1300.3h-711.4c-5.4,0-9.8-4.4-9.8-9.8v-50.3c0-5.4,4.4-9.8,9.8-9.8h711.4c5.4,0,9.8,4.4,9.8,9.8
				v50.3C2586.1,1295.9,2581.6,1300.3,2576.2,1300.3z"/>
		</g>
		<g class="st8">
			<path class="st3" d="M2573.1,1596.2h-711.4c-5.4,0-9.8-4.4-9.8-9.8v-50.3c0-5.4,4.4-9.8,9.8-9.8h711.4c5.4,0,9.8,4.4,9.8,9.8
				v50.3C2582.9,1591.8,2578.5,1596.2,2573.1,1596.2z"/>
			<path class="st3" d="M2573.1,1727.4h-711.4c-5.4,0-9.8-4.4-9.8-9.8v-50.3c0-5.4,4.4-9.8,9.8-9.8h711.4c5.4,0,9.8,4.4,9.8,9.8
				v50.3C2582.9,1723,2578.5,1727.4,2573.1,1727.4z"/>
		</g>
		<path class="st9" d="M2295.2,966.6h-495.6c-5.4,0-9.8-4.4-9.8-9.8v-50.3c0-5.4,4.4-9.8,9.8-9.8h495.6c5.4,0,9.8,4.4,9.8,9.8v50.3
			C2305,962.2,2300.6,966.6,2295.2,966.6z"/>
		<g>
			<path class="st10" d="M1799.9,1388H1482c-15.7,0-28.5-12.8-28.5-28.5v-317.9c0-15.7,12.8-28.5,28.5-28.5h317.9
				c15.7,0,28.5,12.8,28.5,28.5v317.9C1828.4,1375.3,1815.7,1388,1799.9,1388z"/>
			<g>
				<linearGradient id="SVGID_4_" gradientUnits="userSpaceOnUse" x1="1604.4861" y1="849.4774" x2="1664.7463" y2="1529.0746">
					<stop  offset="0" style="stop-color:#FF928E"/>
					<stop  offset="1" style="stop-color:#FE7062"/>
				</linearGradient>
				<path class="st11" d="M1547.5,1145.1c14.2,102.8,66.7,151,137.8,172.8l41-33c-74.7-30.2-127.2-84-149.5-169.6L1547.5,1145.1z"/>
				<linearGradient id="SVGID_5_" gradientUnits="userSpaceOnUse" x1="1685.1896" y1="842.3219" x2="1745.4498" y2="1521.9189">
					<stop  offset="0" style="stop-color:#FF928E"/>
					<stop  offset="1" style="stop-color:#FE7062"/>
				</linearGradient>
				<path class="st12" d="M1682.8,1317c43.3,7.1,48.4,7.5,83.8-16c4-2.6,4.4-8.4,0.7-11.5l-62.5-53.3c-2.4-2.1-6.2-1.2-7.5,1.7
					l-10.3,22.8L1682.8,1317z"/>
				<linearGradient id="SVGID_6_" gradientUnits="userSpaceOnUse" x1="1561.9458" y1="853.2497" x2="1622.2061" y2="1532.847">
					<stop  offset="0" style="stop-color:#FF928E"/>
					<stop  offset="1" style="stop-color:#FE7062"/>
				</linearGradient>
				<path class="st13" d="M1546,1147.6c-4.3-39.5-3.5-45.5,20.9-78.4c2.8-3.8,8.6-3.9,11.5-0.1l49.9,65.3c2,2.6,0.9,6.3-2.1,7.4
					l-23.3,9.1l-52,1.1C1548.4,1152,1546.3,1150.1,1546,1147.6z"/>
			</g>
		</g>
		<g>
			<path class="st10" d="M1795,1805.6h-331.4c-15.7,0-28.5-12.8-28.5-28.5v-331.4c0-15.7,12.8-28.5,28.5-28.5H1795
				c15.7,0,28.5,12.8,28.5,28.5v331.4C1823.5,1792.9,1810.7,1805.6,1795,1805.6z"/>
			<g>
				<g>
					<g>
						<linearGradient id="SVGID_7_" gradientUnits="userSpaceOnUse" x1="1620.3567" y1="1804.0719" x2="1633.6923" y2="1486.2379">
							<stop  offset="0" style="stop-color:#FF928E"/>
							<stop  offset="1" style="stop-color:#FE7062"/>
						</linearGradient>
						<circle class="st14" cx="1630.7" cy="1556.7" r="103.3"/>
						<linearGradient id="SVGID_8_" gradientUnits="userSpaceOnUse" x1="1620.2172" y1="1804.066" x2="1633.5529" y2="1486.2328">
							<stop  offset="0" style="stop-color:#FF928E"/>
							<stop  offset="1" style="stop-color:#FE7062"/>
						</linearGradient>
						<path class="st15" d="M1733.9,1551.1h-103.1h-103.3c0,0-8.2,57.3,84,214.4c4,6.9,11.4,10.9,19.3,11c7.9,0,15.3-4,19.3-10.9
							C1742.2,1608.5,1733.9,1551.1,1733.9,1551.1z"/>
					</g>
					<g>
						<linearGradient id="SVGID_9_" gradientUnits="userSpaceOnUse" x1="1592.0205" y1="1419.5247" x2="1700.4611" y2="1808.3602">
							<stop  offset="0" style="stop-color:#FF928E"/>
							<stop  offset="1" style="stop-color:#FE7062"/>
						</linearGradient>
						<path class="st16" d="M1630.7,1779.8v0.6h0c-9,0-17.4-4.9-21.9-12.6c-53.9-91.8-73.6-149.9-80.7-182.3
							c-2-7.5-3.2-14.8-3.5-22.3c-0.6-7.7-0.1-10.9-0.1-11.3l0.3-1.7c4.2-55.5,50.3-98.7,106-98.7c56.4,0,103,43.8,106.1,99.7
							c0.1,0.7,0.2,2.6,0.2,5.7l0,0.4c0,10.1-1.4,20.2-4.3,29.9c-7.3,32.5-27.2,89.9-80.2,180.2
							C1648.1,1775.2,1640,1779.8,1630.7,1779.8z M1530.2,1555.8c0,1.5,0,3.8,0.3,7.1l0,0c0.3,7.1,1.4,14,3.4,21.1l0,0.1
							c7,32,26.5,89.4,80,180.6c3.4,5.9,9.8,9.5,16.7,9.5l0,3v-3c6.2,0,13.3-3.7,16.8-9.6c52.6-89.7,72.3-146.7,79.5-178.7l0.1-0.2
							c2.7-9.2,3.4-18.7,3.4-28.3l-0.6-0.4v0c0-3,0.5-4.6,0.5-5l0.3-0.2c-2.9-52.8-46.8-94.2-100-94.2c-53.1,0-97,41.9-100.1,95.2
							l-0.1,3.1H1530.2z"/>
					</g>
					
						<ellipse transform="matrix(0.9871 -0.1602 0.1602 0.9871 -228.2374 281.3641)" class="st17" cx="1631.1" cy="1556.3" rx="59.7" ry="59.7"/>
					<g>
						<linearGradient id="SVGID_10_" gradientUnits="userSpaceOnUse" x1="1715.454" y1="1465.2332" x2="2077.7405" y2="1074.0526">
							<stop  offset="0" style="stop-color:#FEBBBA"/>
							<stop  offset="1" style="stop-color:#FF928E"/>
						</linearGradient>
						<path class="st18" d="M1631.1,1619.3c-34.7,0-63-28.3-63-63c0-34.7,28.3-63,63-63c34.7,0,63,28.3,63,63
							C1694.1,1591.1,1665.8,1619.3,1631.1,1619.3z M1631.1,1500c-31.1,0-56.3,25.3-56.3,56.3c0,31.1,25.3,56.3,56.3,56.3
							s56.3-25.3,56.3-56.3C1687.4,1525.3,1662.1,1500,1631.1,1500z"/>
					</g>
				</g>
				<g>
					<path class="st17" d="M1574.5,1494.2c-0.3,0-0.6-0.1-0.8-0.3c-0.4-0.4-0.3-1,0.1-1.4c16.8-14.4,38.2-22.3,60.3-22.3
						c0.6,0,1,0.4,1,1s-0.4,1-1,1c-21.6,0-42.6,7.8-59,21.8C1574.9,1494.2,1574.7,1494.2,1574.5,1494.2z"/>
				</g>
				<g>
					<path class="st17" d="M1542.5,1563.7c-0.6,0-1-0.4-1-1c0-17.3,4.8-34.1,13.8-48.7c0.3-0.5,0.9-0.6,1.4-0.3
						c0.5,0.3,0.6,0.9,0.3,1.4c-8.9,14.3-13.5,30.8-13.5,47.7C1543.5,1563.3,1543.1,1563.7,1542.5,1563.7z"/>
				</g>
			</g>
		</g>
		<g>
			
				<linearGradient id="SVGID_11_" gradientUnits="userSpaceOnUse" x1="14462.7598" y1="2912.2747" x2="13855.5205" y2="3572.7812" gradientTransform="matrix(1 9.500000e-03 -9.500000e-03 1 -13247.2676 -63.4747)">
				<stop  offset="0" style="stop-color:#09005D"/>
				<stop  offset="1" style="stop-color:#1A0F91"/>
			</linearGradient>
			<path class="st19" d="M995.4,3033.6c0,0-6.6,35.5-10,70.8c-1.3,13.8,9.2,25.8,23,26.5c46.9,2.4,147.3,7.2,183.3,5.9
				c5.4-0.2,9-5.7,7.1-10.8c-1.6-4.2-4.8-7.7-9-9.6l-165.1-77.8L995.4,3033.6z"/>
			
				<linearGradient id="SVGID_12_" gradientUnits="userSpaceOnUse" x1="14265.6592" y1="2961.3254" x2="14319.5977" y2="2961.3254" gradientTransform="matrix(1 9.500000e-03 -9.500000e-03 1 -13247.2676 -63.4747)">
				<stop  offset="0" style="stop-color:#FEBBBA"/>
				<stop  offset="1" style="stop-color:#FF928E"/>
			</linearGradient>
			<path class="st20" d="M990.5,3012.6l4.6,42.6c0,0,28.9,13.8,48.9-1.2l-11.6-47.6L990.5,3012.6z"/>
			<linearGradient id="SVGID_13_" gradientUnits="userSpaceOnUse" x1="706.3618" y1="3384.1245" x2="1110.0737" y2="2163.4912">
				<stop  offset="0" style="stop-color:#09005D"/>
				<stop  offset="1" style="stop-color:#1A0F91"/>
			</linearGradient>
			<path class="st21" d="M1001.9,2212c-2.3,11.1-17,554.9,38.8,799.1c0.9,4-1.1,8.1-4.9,9.6c-9,3.6-26.5,8.7-47.4,9.2
				c-6.5,0.2-12.3-4.1-14-10.4c-16.1-56.7-93-340.8-100.8-611.5c-8.7-302.5,0.1-10.3,0.1-10.3l8.6-186.9L1001.9,2212z"/>
			
				<linearGradient id="SVGID_14_" gradientUnits="userSpaceOnUse" x1="14326.5361" y1="2787.0146" x2="13719.2715" y2="3447.5488" gradientTransform="matrix(1 9.500000e-03 -9.500000e-03 1 -13247.2676 -63.4747)">
				<stop  offset="0" style="stop-color:#09005D"/>
				<stop  offset="1" style="stop-color:#1A0F91"/>
			</linearGradient>
			<path class="st22" d="M804.5,3050.3c0,0-10.2,17.9-20.3,65.5c-1.8,8.6,4.1,16.9,12.9,17.9c15.5,1.7,39.3,3.9,58.4,3.9
				c8.8,0,15.8-7.6,14.8-16.3c-2-17.5-8.3-46.1-28.4-68.6L804.5,3050.3z"/>
			
				<linearGradient id="SVGID_15_" gradientUnits="userSpaceOnUse" x1="14071.2607" y1="2958.5515" x2="14117.8301" y2="2958.5515" gradientTransform="matrix(1 9.500000e-03 -9.500000e-03 1 -13247.2676 -63.4747)">
				<stop  offset="0" style="stop-color:#FEBBBA"/>
				<stop  offset="1" style="stop-color:#FF928E"/>
			</linearGradient>
			<path class="st23" d="M796.2,2995.5l11.2,64.5c0,0,11.6,8.8,34.7,2.7l-5-69.3L796.2,2995.5z"/>
			<linearGradient id="SVGID_16_" gradientUnits="userSpaceOnUse" x1="573.3896" y1="3340.1453" x2="977.1019" y2="2119.5107">
				<stop  offset="0" style="stop-color:#09005D"/>
				<stop  offset="1" style="stop-color:#1A0F91"/>
			</linearGradient>
			<path class="st24" d="M771.6,2226.5c-50.3,286.5,3.5,709.3,22.3,792.1c1.1,5.1,5.2,9,10.3,9.9c8.7,1.5,23,2.8,37.2-1.1
				c4.9-1.4,8.3-5.7,8.6-10.8c3.3-66.8,2.5-477,48.3-638.7c2.3-8.2,7.4-15.3,14.4-20.2l86.6-60.3l7.5-98.7L771.6,2226.5z"/>
			<g>
				
					<linearGradient id="SVGID_17_" gradientUnits="userSpaceOnUse" x1="7440.1685" y1="-11034.4385" x2="6930.1035" y2="-10309.3457" gradientTransform="matrix(-1 0 0 1 -703.6557 0)">
					<stop  offset="0" style="stop-color:#FF928E"/>
					<stop  offset="1" style="stop-color:#FE7062"/>
				</linearGradient>
				<path class="st25" d="M1079.8,1685.7c-142.5-3.7-300.1,34.6-300.1,34.6c-44.8,247.4-12.5,533.6-12.5,533.6
					c110,30,234.9-15.4,234.9-15.4c19.3-103.4,107.6-394.1,107.6-394.1c69.7-8,127.2-27.5,174.7-53.6
					c-35.6-42.1-52.1-95.4-59.2-126.9C1174.8,1679,1123.7,1686.9,1079.8,1685.7z"/>
				
					<linearGradient id="SVGID_18_" gradientUnits="userSpaceOnUse" x1="14487.6777" y1="1554.109" x2="14763.2549" y2="1554.109" gradientTransform="matrix(1 9.500000e-03 -9.500000e-03 1 -13247.2676 -63.4747)">
					<stop  offset="0" style="stop-color:#FEBBBA"/>
					<stop  offset="1" style="stop-color:#FF928E"/>
				</linearGradient>
				<path class="st26" d="M1502.7,1479.9c-13.8-17-31.6-9.2-31.6-9.2c-21.8,88.4-132.4,159.1-245.7,193.2
					c7.1,31.5,23.6,84.8,59.2,126.9C1472.9,1687.1,1502.7,1479.9,1502.7,1479.9z"/>
			</g>
			<g>
				<linearGradient id="SVGID_19_" gradientUnits="userSpaceOnUse" x1="1587.5701" y1="1116.1812" x2="1476.7416" y2="1565.8285">
					<stop  offset="0" style="stop-color:#FEBBBA"/>
					<stop  offset="1" style="stop-color:#FF928E"/>
				</linearGradient>
				<path class="st27" d="M1499.2,1484.1c1.4,4.7-15.6,11.6-25.4-7.5c-0.3-9.1-5.4-48.3,0.1-55.7c29.4-39.3,86.2-88.4,86.2-88.4
					c9.4,9.5,1.5,18.6,1.5,18.6l-27.6,28.2c5.6,10.4,12.5,19.2,15.6,31.7c2.4,9.5,0.8,19.6-4.1,28.1c-4.9,8.6-11.5,19.8-17.8,28.5
					C1515.9,1484.2,1499.2,1484.1,1499.2,1484.1z"/>
				<linearGradient id="SVGID_20_" gradientUnits="userSpaceOnUse" x1="1532.5525" y1="1259.3049" x2="1456.5555" y2="1765.9491">
					<stop  offset="0" style="stop-color:#FEBBBA"/>
					<stop  offset="1" style="stop-color:#FF928E"/>
				</linearGradient>
				<path class="st28" d="M1521.9,1397.7l-25.1,20.9l-8,20.9l22,24.8c0,0,7.9-41.6,13.5-50.6
					C1529.9,1404.7,1527,1400.4,1521.9,1397.7z"/>
			</g>
			
				<linearGradient id="SVGID_21_" gradientUnits="userSpaceOnUse" x1="7573.1538" y1="-10940.8965" x2="7063.0894" y2="-10215.8047" gradientTransform="matrix(-1 0 0 1 -703.6557 0)">
				<stop  offset="0" style="stop-color:#FF928E"/>
				<stop  offset="1" style="stop-color:#FE7062"/>
			</linearGradient>
			<path class="st29" d="M833.1,1858.7l-53.3-138.5c0,0-134,89.2-156.9,203.6c25.1,2.1,70.8,9.1,115.4,32.1
				C748.6,1901.9,833.1,1858.7,833.1,1858.7z"/>
			
				<linearGradient id="SVGID_22_" gradientUnits="userSpaceOnUse" x1="13884.6602" y1="1944.4192" x2="14233.3936" y2="1944.4192" gradientTransform="matrix(1 9.500000e-03 -9.500000e-03 1 -13247.2676 -63.4747)">
				<stop  offset="0" style="stop-color:#FEBBBA"/>
				<stop  offset="1" style="stop-color:#FF928E"/>
			</linearGradient>
			<path class="st30" d="M948.1,1989.7c0,0-150.2,83-200,10.4c-10.3-15.1-12.7-30-10-44.1c-44.6-23-90.3-30-115.4-32.1
				c-6.9,34.5-3.8,71.3,16.2,108.6c86.8,162.4,328.6-5.8,328.6-5.8L948.1,1989.7z"/>
			
				<linearGradient id="SVGID_23_" gradientUnits="userSpaceOnUse" x1="14152.4512" y1="1571.6078" x2="14290.335" y2="1571.6078" gradientTransform="matrix(1 9.500000e-03 -9.500000e-03 1 -13247.2676 -63.4747)">
				<stop  offset="0" style="stop-color:#FEBBBA"/>
				<stop  offset="1" style="stop-color:#FF928E"/>
			</linearGradient>
			<path class="st31" d="M936.6,1568.7L890,1699.3c-0.8,2.2,0.1,4.6,2.1,5.7c12.3,6.9,56.6,27.1,110.6-6.4
				c5.6-3.5,9.5-9.2,10.4-15.8l15.8-113.3L936.6,1568.7z"/>
			<g>
				
					<linearGradient id="SVGID_24_" gradientUnits="userSpaceOnUse" x1="5338.5552" y1="7831.5654" x2="5287.0298" y2="7661.623" gradientTransform="matrix(0.7523 -0.6588 0.6588 0.7523 -8113.8643 -818.1582)">
					<stop  offset="0" style="stop-color:#FEBBBA"/>
					<stop  offset="1" style="stop-color:#FF928E"/>
				</linearGradient>
				<path class="st32" d="M1036.4,1448.2c0,0,48.9,94.2,42.1,132c-6.7,37.8-68.4,34.5-122,3.2l-36.7-101.5L1036.4,1448.2z"/>
				
					<linearGradient id="SVGID_25_" gradientUnits="userSpaceOnUse" x1="5292.0728" y1="7535.4663" x2="5335.1729" y2="7781.2954" gradientTransform="matrix(0.7523 -0.6588 0.6588 0.7523 -8113.8643 -818.1582)">
					<stop  offset="0" style="stop-color:#09005D"/>
					<stop  offset="1" style="stop-color:#1A0F91"/>
				</linearGradient>
				<path class="st33" d="M959.4,1533.7c2.2-0.9,3-3.6,1.7-5.6c-3.9-6.1-11.3-18.6-13.6-29.5c0,0-8.9-5.8,22.9-13.1
					c31.8-7.3,79.2-18.6,89.4-45.5c9.9-26.2-14.9-92.7-56-40.3c-1.6,2-4.6,2-6.1,0c-6.6-8.7-23.9-26.9-48.4-16.2
					c-22.9,10-25.6,26.6-25.3,35.1c0.1,2.5-2.2,4.4-4.6,3.9c-11.5-2.3-39.1-4.5-52.2,23.8c-10.8,23.2-4.1,36.5,2.2,43
					c2,2.1,1.1,5.6-1.7,6.4c-7.6,2.2-17.4,8.6-16.6,26.3c1.1,24.5,28.5,22.6,36.3,21.6c1.3-0.2,2.6,0.3,3.4,1.2
					c6.6,7.5,36.4,39.2,69,43.3c2.8,0.4,5-2.4,4.1-5.1l-13.7-41.1c-0.6-1.9,0.3-4,2.1-4.8L959.4,1533.7z"/>
				
					<linearGradient id="SVGID_26_" gradientUnits="userSpaceOnUse" x1="5285.8848" y1="7830.772" x2="5239.5269" y2="7677.8721" gradientTransform="matrix(0.7523 -0.6588 0.6588 0.7523 -8113.8643 -818.1582)">
					<stop  offset="0" style="stop-color:#FEBBBA"/>
					<stop  offset="1" style="stop-color:#FF928E"/>
				</linearGradient>
				<path class="st34" d="M965,1539.6c0,0-35.2-24.7-38-4.2c-2.8,20.5,31.6,30,48.8,22.5L965,1539.6z"/>
			</g>
			<g>
				<g>
					
						<linearGradient id="SVGID_27_" gradientUnits="userSpaceOnUse" x1="14040.1445" y1="1791.2622" x2="14232.5752" y2="2593.0596" gradientTransform="matrix(1 0 0 1 -12978.9785 0)">
						<stop  offset="0" style="stop-color:#09005D"/>
						<stop  offset="1" style="stop-color:#1A0F91"/>
					</linearGradient>
					<path class="st35" d="M917.4,2120.9l81.8-285.8c0.9-3.2,3.7-5.6,7-6c14.8-1.7,57.8-6.6,107.4-10.8
						c59.8-5.1,129.1-9.1,170.6-5.7c5.9,0.5,9.5,6.7,6.8,12c-23.6,47.7-120.6,241.8-169.1,305.3c-1.6,2.1-4.1,3.3-6.7,3.3
						l-189.9-1.8C919.9,2131.5,915.9,2126.2,917.4,2120.9z"/>
					
						<linearGradient id="SVGID_28_" gradientUnits="userSpaceOnUse" x1="13908.2852" y1="2003.3802" x2="14017.3125" y2="2003.3802" gradientTransform="matrix(1 0 0 1 -12978.9785 0)">
						<stop  offset="0" style="stop-color:#FEBBBA"/>
						<stop  offset="1" style="stop-color:#FF928E"/>
					</linearGradient>
					<path class="st36" d="M937.2,2051.8c0,0-11.4-46.9-6.8-63.5c4.6-16.6,13.5-38,43.2-33.3c29.7,4.8,64.7,17.3,64.7,17.3
						s-1.8,21.7-24.3,14.7l14,10.8c0,0-2,17.3-21.1,8.1l13,14.4c0,0-8.2,14.2-22.2,5.1C983.7,2016.2,977,2057.5,937.2,2051.8z"/>
				</g>
			</g>
		</g>
		<path class="st2" d="M2484.6,2719.5l-1027.8-32.1c-42.6-1.3-76.4-35.8-76.4-78v-546.7c0-49.4,40.5-89.4,90.4-89.4h1097.7
			c39.1,0,70.3,32.1,68.9,70.7l-20.9,553.8C2613.9,2667.3,2555,2721.7,2484.6,2719.5z"/>
		<g>
			<g>
				<linearGradient id="SVGID_29_" gradientUnits="userSpaceOnUse" x1="1838.2996" y1="2838.4087" x2="2028.3236" y2="2298.3401">
					<stop  offset="0" style="stop-color:#FF928E"/>
					<stop  offset="1" style="stop-color:#FE7062"/>
				</linearGradient>
				<path class="st37" d="M2365,2612.6h-711.7c-28.7,0-52-21.3-52-47.6v-424c0-25.3,21.6-46.1,49.1-47.5l739.2-37.7
					c30.9-1.6,56.5,21.8,54.8,50.1l-27.5,461.7C2415.4,2592.8,2392.6,2612.6,2365,2612.6z"/>
				<g>
					<linearGradient id="SVGID_30_" gradientUnits="userSpaceOnUse" x1="1978.5789" y1="2340.6895" x2="2108.5957" y2="1450.5758">
						<stop  offset="0" style="stop-color:#FF928E"/>
						<stop  offset="1" style="stop-color:#FE7062"/>
					</linearGradient>
					<path class="st38" d="M2025.7,2356.7l389.1-296.4c-7.6-3.3-16.2-5-25.2-4.5l-739.2,37.7c-12.7,0.6-24.1,5.4-32.8,12.9
						l291.2,247.7C1940.4,2381,1992.4,2382.1,2025.7,2356.7z"/>
				</g>
			</g>
			<path class="st3" d="M1971.6,2342c-19.3,0-38.6-6.3-54.1-18.8l-109.7-88.6c-3.2-2.6-3.5-7.1-0.7-10c2.8-2.9,7.8-3.2,11-0.6
				l109.7,88.6c23.3,18.8,57.2,20.4,82.5,3.8l56.8-37.4c3.5-2.3,8.3-1.6,10.9,1.6c2.5,3.2,1.7,7.6-1.8,9.9l-56.8,37.4
				C2005,2337.3,1988.3,2342,1971.6,2342z"/>
			<path class="st3" d="M1772.2,2203.4c-1.8,0-3.7-0.6-5.1-1.8l-14.8-11.9c-3.2-2.6-3.5-7.1-0.7-10c2.8-3,7.8-3.2,11-0.6l14.8,11.9
				c3.2,2.6,3.5,7.1,0.7,10C1776.5,2202.6,1774.3,2203.4,1772.2,2203.4z"/>
		</g>
	</g>
</g>
</svg>
