<?xml version="1.0" encoding="utf-8"?>
<!-- Generator: Adobe Illustrator 25.0.1, SVG Export Plug-In . SVG Version: 6.00 Build 0)  -->
<svg version="1.1" id="Layer_1" xmlns="http://www.w3.org/2000/svg" xmlns:xlink="http://www.w3.org/1999/xlink" x="0px" y="0px"
	 viewBox="0 0 50 50" style="enable-background:new 0 0 50 50;" xml:space="preserve">
<style type="text/css">
	.st0{fill:#51555C;}
</style>
<g>
	<path class="st0" d="M24.9,0.7C11.5,0.7,0.7,11.5,0.7,24.9c0,13.3,10.7,24.4,24.2,24.4c13.4,0,24.4-11,24.4-24.4
		C49.3,11.4,38.2,0.7,24.9,0.7L24.9,0.7z M24.9,46.5c-11.8,0-21.4-9.7-21.4-21.6c0-11.8,9.6-21.4,21.4-21.4
		c11.9,0,21.6,9.6,21.6,21.4C46.5,36.8,36.8,46.5,24.9,46.5L24.9,46.5z M24.9,46.5"/>
	<path class="st0" d="M24.9,9.2c-8.6,0-15.7,7-15.7,15.7c0,8.7,7,15.9,15.7,15.9c3.5,0,7-1.2,9.7-3.2c0.6-0.5,0.7-1.4,0.3-2
		c-0.5-0.6-1.4-0.7-2-0.3c-2.2,1.7-5.1,2.7-8,2.7c-7.1,0-12.8-5.9-12.8-13c0-7.1,5.8-12.8,12.8-12.8c7.2,0,13,5.8,13,12.8v1.4
		c0,1.6-1.3,2.9-2.9,2.9s-2.9-1.3-2.9-2.9c0-0.7,0-6.4,0-7.1c0-0.8-0.6-1.4-1.4-1.4c-0.8,0-1.4,0.6-1.4,1.4v0.1
		c-1.3-1-2.8-1.5-4.5-1.5c-3.9,0-7.1,3.2-7.1,7.1c0,3.9,3.2,7.1,7.1,7.1c2.1,0,4.1-0.9,5.5-2.5c1,1.5,2.7,2.5,4.7,2.5
		c3.1,0,5.7-2.6,5.7-5.7v-1.4C40.8,16.2,33.6,9.2,24.9,9.2L24.9,9.2z M24.9,29.2c-2.4,0-4.3-1.9-4.3-4.3s1.9-4.3,4.3-4.3
		c2.4,0,4.5,2,4.5,4.3S27.3,29.2,24.9,29.2L24.9,29.2z M24.9,29.2"/>
</g>
</svg>
