<?xml version="1.0" encoding="utf-8"?>
<!-- Generator: Adobe Illustrator 25.0.1, SVG Export Plug-In . SVG Version: 6.00 Build 0)  -->
<svg version="1.1" id="Layer_1" xmlns="http://www.w3.org/2000/svg" xmlns:xlink="http://www.w3.org/1999/xlink" x="0px" y="0px"
	 viewBox="0 0 50 50" style="enable-background:new 0 0 50 50;" xml:space="preserve">
<style type="text/css">
	.st0{fill:#51555C;}
</style>
<g>
	<path class="st0" d="M39.6,15c0-8-6.6-14.4-14.6-14.2c-7.5,0.2-13.7,6.5-13.8,14c-0.1,4.9,2.4,9.3,6.2,11.9
		c-3.5,1.2-6.7,3.2-9.3,5.9c-4.1,4.1-6.6,9.5-7.1,15.3C0.8,49,1.7,50,2.8,50l0,0c1,0,1.8-0.7,1.9-1.7c0.9-10.6,9.8-19,20.7-19
		C33.3,29.2,39.6,22.9,39.6,15L39.6,15z M25.4,25.4C19.7,25.4,15,20.7,15,15S19.7,4.7,25.4,4.7c5.7,0,10.4,4.7,10.4,10.4
		S31.1,25.4,25.4,25.4L25.4,25.4z M33.7,38.5h14.4c1.1,0,1.9,0.9,1.9,1.9l0,0c0,1.1-0.9,1.9-1.9,1.9H33.7c-1.1,0-1.9-0.9-1.9-1.9
		l0,0C31.8,39.3,32.6,38.5,33.7,38.5z M50,32.7L50,32.7c0,1.1-0.9,1.9-1.9,1.9H33.7c-1.1,0-1.9-0.9-1.9-1.9l0,0
		c0-1.1,0.9-1.9,1.9-1.9h14.4C49.1,30.8,50,31.6,50,32.7z M33.7,46.2h14.4c1.1,0,1.9,0.9,1.9,1.9l0,0c0,1.1-0.9,1.9-1.9,1.9H33.7
		c-1.1,0-1.9-0.9-1.9-1.9l0,0C31.8,47,32.6,46.2,33.7,46.2z M31.8,46.2"/>
</g>
</svg>
