<?xml version="1.0" encoding="utf-8"?>
<!-- Generator: Adobe Illustrator 25.0.1, SVG Export Plug-In . SVG Version: 6.00 Build 0)  -->
<svg version="1.1" id="Layer_1" xmlns="http://www.w3.org/2000/svg" xmlns:xlink="http://www.w3.org/1999/xlink" x="0px" y="0px"
	 viewBox="0 0 50 50" style="enable-background:new 0 0 50 50;" xml:space="preserve">
<style type="text/css">
	.st0{fill:#4B91CE;}
	.st1{fill:#FFFFFF;}
</style>
<g>
	<ellipse transform="matrix(0.1587 -0.9873 0.9873 0.1587 -3.3738 45.4778)" class="st0" cx="25" cy="24.7" rx="23.7" ry="23.7"/>
	<path class="st1" d="M27.2,22.5l0-8.6c0-1.2-1-2.2-2.2-2.2c-1.2,0-2.2,1-2.2,2.2l0,8.6l-8.6,0c-1.2,0-2.2,1-2.2,2.2
		c0,1.2,1,2.2,2.2,2.2l8.6,0l0,8.6c0,1.2,1,2.2,2.2,2.2c0.6,0,1.1-0.2,1.5-0.6c0.4-0.4,0.6-0.9,0.6-1.5l0-8.6l8.6,0
		c0.6,0,1.1-0.2,1.5-0.6c0.4-0.4,0.6-0.9,0.6-1.5c0-1.2-1-2.2-2.2-2.2L27.2,22.5z"/>
</g>
</svg>
