<?xml version="1.0" encoding="utf-8"?>
<!-- Generator: Adobe Illustrator 25.0.1, SVG Export Plug-In . SVG Version: 6.00 Build 0)  -->
<svg version="1.1" id="Layer_1" xmlns="http://www.w3.org/2000/svg" xmlns:xlink="http://www.w3.org/1999/xlink" x="0px" y="0px"
	 viewBox="0 0 50 50" style="enable-background:new 0 0 50 50;" xml:space="preserve">
<style type="text/css">
	.st0{fill:#51555C;}
</style>
<g>
	<path class="st0" d="M24.8,0.7C11.5,0.7,0.7,11.5,0.7,24.9c0,5.2,2.1,9.9,3,11.7c0.4,0.8,1.4,1.2,2.3,0.7c0.8-0.4,1.1-1.4,0.7-2.3
		C5.9,33.4,4,29.3,4,24.9C4,13.4,13.4,4,24.8,4c11.5,0,20.8,9.3,20.8,20.8c0,11.5-9.3,20.8-20.8,20.8c-4.5,0-8.1-1.6-9.4-2.2
		c-0.4-0.2-0.8-0.2-1.3-0.1L3.6,46.7c-0.9,0.3-1.4,1.2-1.1,2.1C2.7,49.5,3.4,50,4.1,50c0.2,0,0.3,0,0.5-0.1l9.9-3.2
		c2.1,1,5.7,2.3,10.3,2.3C38.2,49,49,38.2,49,24.9C49,11.5,38.2,0.7,24.8,0.7L24.8,0.7z M24.8,0.7"/>
	<path class="st0" d="M20.1,20.7c-0.7,0.6-0.9,1.6-0.3,2.4c0.6,0.7,1.6,0.9,2.4,0.3c0.5-0.4,1.9-1.4,1.7-3.3
		c-0.1-1.1-1.2-2.6-2.1-3.7c-1.3-1.6-2.4-2.5-3.3-2.8c-0.8-0.3-1.6-0.2-2.5,0.1c-1.7,0.7-2.9,1.8-3.5,3.3c-0.6,1.4-0.5,3,0.3,4.6
		c1.8,3.7,4.1,6.9,7,9.5c0,0,0,0,0,0c2.9,2.6,6.3,4.6,10.2,5.9c0.7,0.3,1.5,0.4,2.2,0.4c0.9,0,1.7-0.2,2.5-0.6
		c1.4-0.7,2.4-2.1,2.9-3.8c0.2-0.9,0.2-1.7-0.2-2.5c-0.4-0.8-1.4-1.8-3.1-3c-1.2-0.8-2.8-1.7-3.9-1.7c0,0,0,0,0,0
		c-1.9,0-2.8,1.5-3.1,2c-0.5,0.8-0.2,1.8,0.6,2.3c0.8,0.5,1.8,0.2,2.3-0.6c0.1-0.2,0.2-0.3,0.3-0.4c0.9,0.3,3.5,1.9,4,2.6
		c0,0,0,0.1,0,0.2c-0.2,0.6-0.5,1.4-1.2,1.8c-0.6,0.3-1.4,0.2-1.9,0c-3.5-1.2-6.5-2.9-9.1-5.2c0,0,0,0,0,0c-2.5-2.3-4.6-5.2-6.2-8.5
		c-0.2-0.5-0.5-1.3-0.2-1.9c0.3-0.7,1-1.2,1.6-1.4c0.1,0,0.2,0,0.2,0c0.8,0.4,2.7,2.8,3.1,3.7C20.4,20.5,20.3,20.6,20.1,20.7
		L20.1,20.7z M20.1,20.7"/>
</g>
</svg>
