<?xml version="1.0" encoding="utf-8"?>
<!-- Generator: Adobe Illustrator 25.0.1, SVG Export Plug-In . SVG Version: 6.00 Build 0)  -->
<svg version="1.1" id="Layer_1" xmlns="http://www.w3.org/2000/svg" xmlns:xlink="http://www.w3.org/1999/xlink" x="0px" y="0px"
	 viewBox="0 0 50 50" style="enable-background:new 0 0 50 50;" xml:space="preserve">
<style type="text/css">
	.st0{fill:#4B91CE;}
	.st1{fill:#FFFFFF;}
</style>
<ellipse transform="matrix(0.1587 -0.9873 0.9873 0.1587 -3.6761 45.7354)" class="st0" cx="25" cy="25" rx="24.1" ry="24.1"/>
<g>
	<g>
		<path class="st1" d="M41.5,39.6L31.4,29.5c4.2-5.2,3.9-12.8-0.9-17.6c-2.5-2.5-5.8-3.8-9.3-3.8c-3.5,0-6.8,1.4-9.3,3.8
			c-5.1,5.1-5.1,13.5,0,18.6c2.5,2.5,5.8,3.8,9.3,3.8c3.1,0,6-1,8.3-2.9l10.1,10.1c0.3,0.3,0.6,0.4,0.9,0.4c0.3,0,0.7-0.1,0.9-0.4
			C42,41,42,40.2,41.5,39.6z M13.8,28.6c-4.1-4.1-4.1-10.7,0-14.8c2-2,4.6-3.1,7.4-3.1c2.8,0,5.4,1.1,7.4,3.1
			c4.1,4.1,4.1,10.7,0,14.8c-2,2-4.6,3.1-7.4,3.1C18.4,31.7,15.8,30.6,13.8,28.6z"/>
		<path class="st1" d="M16.5,14c-0.7,0.3-1,1.1-0.7,1.8c0.3,0.7,1.1,1,1.8,0.7c0,0,4.2-1.9,8,1.7c0.3,0.2,0.6,0.4,0.9,0.4
			c0.4,0,0.7-0.1,1-0.4c0.5-0.5,0.5-1.4-0.1-1.9C22.3,11.4,16.7,13.9,16.5,14z"/>
	</g>
</g>
</svg>
